<svg version="1.0" xmlns="http://www.w3.org/2000/svg" width="36" height="36" viewBox="0 0 340 340" preserveAspectRatio="xMidYMid meet"><g transform="translate(0,340) scale(0.1,-0.1)" fill="" stroke="none"><path d="M1605 2998 c-27 -5 -88 -27 -135 -50 -291 -140 -405 -491 -253 -780 19 -37 58 -92 87 -121 201 -209 502 -242 739 -80 294 200 333 616 82 869 -140 141 -326 199 -520 162z m205 -289 c106 -32 192 -145 194 -256 2 -94 -20 -150 -83 -214 -44 -45 -68 -61 -110 -73 -109 -32 -205 -11 -281 60 -67 62 -93 121 -93 209 -1 119 49 202 155 254 67 34 147 41 218 20z"/><path d="M1470 1416 c-312 -45 -629 -153 -806 -274 -82 -55 -170 -151 -202 -219 -26 -57 -27 -63 -30 -275 l-3 -218 728 0 728 0 145 145 145 145 -728 0 -727 0 0 49 c0 45 3 51 48 92 136 127 508 252 834 279 236 21 556 -30 787 -124 l59 -24 107 108 108 108 -41 21 c-126 64 -357 135 -562 172 -148 27 -451 34 -590 15z"/><path d="M3073 1208 l-84 -83 144 -143 143 -143 82 84 c111 115 112 111 -31 254 -143 143 -140 143 -254 31z"/><path d="M2517 652 l-367 -367 0 -143 0 -142 143 0 142 0 370 370 370 370 -140 140 c-77 77 -142 140 -145 140 -3 0 -170 -165 -373 -368z"/></g></svg>
