<?xml version="1.0" standalone="no"?>
<!DOCTYPE svg PUBLIC "-//W3C//DTD SVG 20010904//EN"
 "http://www.w3.org/TR/2001/REC-SVG-20010904/DTD/svg10.dtd">
<svg version="1.0" xmlns="http://www.w3.org/2000/svg"
 width="120" height="120" viewBox="0 0 120 120"
 preserveAspectRatio="xMidYMid meet">

<g transform="translate(0,120) scale(0.1,-0.1)"
fill="" stroke="none">
<path d="M157 1082 l-27 -28 53 -52 53 -52 22 23 c12 13 22 28 22 33 0 5 -22
31 -48 57 l-48 47 -27 -28z"/>
<path d="M967 1062 c-26 -26 -47 -52 -47 -58 0 -6 10 -20 23 -32 l23 -22 52
53 52 53 -28 27 -28 27 -47 -48z"/>
<path d="M505 1033 c-99 -36 -163 -103 -191 -202 -30 -101 -8 -189 73 -302 45
-63 63 -124 63 -216 0 -82 14 -120 54 -147 15 -9 26 -25 26 -35 0 -28 33 -51
72 -51 37 0 68 24 68 53 0 9 11 24 26 33 40 27 54 65 54 147 0 92 18 153 63
216 68 94 81 129 81 216 1 91 -19 145 -73 208 -71 81 -213 117 -316 80z m193
-82 c44 -23 83 -63 107 -110 13 -25 16 -52 13 -106 -3 -68 -7 -78 -50 -141
-48 -70 -70 -119 -82 -186 l-7 -38 -79 0 -79 0 -7 38 c-12 67 -34 116 -82 186
-43 63 -47 73 -50 140 -3 58 0 81 16 112 23 44 63 84 107 107 43 23 146 22
193 -2z m-28 -681 c0 -34 -23 -50 -70 -50 -47 0 -70 16 -70 50 l0 30 70 0 70
0 0 -30z"/>
<path d="M72 713 l3 -38 75 0 75 0 3 38 3 37 -81 0 -81 0 3 -37z"/>
<path d="M972 713 l3 -38 75 0 75 0 3 38 3 37 -81 0 -81 0 3 -37z"/>
<path d="M175 420 l-49 -50 27 -27 27 -28 52 52 52 52 -24 26 c-13 14 -26 25
-30 25 -3 0 -28 -23 -55 -50z"/>
<path d="M940 445 l-24 -26 52 -52 52 -52 27 28 27 27 -49 50 c-27 27 -52 50
-55 50 -4 0 -17 -11 -30 -25z"/>
</g>
</svg>
