<svg version="1.0" xmlns="http://www.w3.org/2000/svg" width="120" height="120" viewBox="0 0 120 120" preserveAspectRatio="xMidYMid meet"><g transform="translate(0,120) scale(0.1,-0.1)" fill="" stroke="none"><path d="M550 1125 l0 -75 50 0 50 0 0 75 0 75 -50 0 -50 0 0 -75z"/><path d="M177 1022 l-37 -38 48 -47 c26 -26 52 -47 57 -47 13 0 65 52 65 65 0 6 -22 32 -48 58 l-48 47 -37 -38z"/><path d="M937 1012 c-26 -26 -47 -52 -47 -58 0 -13 53 -64 66 -64 5 0 31 22 57 48 l47 48 -38 37 -38 37 -47 -48z"/><path d="M503 936 c-103 -34 -176 -98 -222 -196 -22 -46 -26 -69 -26 -140 0 -73 4 -93 28 -142 29 -60 93 -130 139 -154 27 -14 28 -17 28 -95 0 -132 26 -159 156 -159 73 0 77 1 110 34 33 33 34 36 34 120 0 83 1 86 28 100 45 23 111 97 140 156 23 47 27 68 27 140 0 71 -4 94 -26 141 -58 124 -169 199 -302 205 -43 3 -89 -2 -114 -10z m221 -120 c175 -102 163 -354 -19 -441 l-55 -26 0 -99 0 -100 -50 0 -50 0 0 100 0 99 -55 26 c-201 96 -187 383 22 461 57 22 152 12 207 -20z"/><path d="M0 600 l0 -50 75 0 75 0 0 50 0 50 -75 0 -75 0 0 -50z"/><path d="M1050 600 l0 -50 75 0 75 0 0 50 0 50 -75 0 -75 0 0 -50z"/><path d="M187 262 l-47 -48 38 -37 38 -37 47 48 c26 26 47 52 47 58 0 13 -53 64 -66 64 -5 0 -31 -22 -57 -48z"/><path d="M917 282 c-15 -15 -27 -33 -27 -38 0 -5 22 -31 48 -57 l48 -47 37 38 37 38 -48 47 c-26 26 -52 47 -58 47 -6 0 -22 -13 -37 -28z"/></g></svg>
